<svg width="41" height="40" viewBox="0 0 41 40" fill="none" xmlns="http://www.w3.org/2000/svg">
<path d="M28.7211 20.7922C24.9734 20.7922 21.9421 23.833 21.9421 27.5712C21.9421 31.3188 24.9734 34.3501 28.7211 34.3501C32.4687 34.3501 35.5 31.3188 35.5 27.5712C35.5 23.833 32.4687 20.7922 28.7211 20.7922ZM28.7211 32.851C25.8036 32.851 23.4412 30.4886 23.4412 27.5712C23.4412 24.6537 25.8036 22.2913 28.7211 22.2913C31.6385 22.2913 34.0009 24.6537 34.0009 27.5712C34.0009 30.4886 31.6385 32.851 28.7211 32.851ZM31.5389 7.89848C31.5389 6.29981 30.2438 5 28.6404 5H8.39848C6.79981 5 5.5 6.29507 5.5 7.89848V9.94307H31.5389V7.89848ZM22.4972 7.83681H14.5417C14.3425 7.83681 14.1812 7.67552 14.1812 7.47628C14.1812 7.27704 14.3425 7.11101 14.5417 7.11101H22.4972C22.6964 7.11101 22.8624 7.2723 22.8624 7.47628C22.8624 7.67552 22.6964 7.83681 22.4972 7.83681Z" fill="#6EAA44"/>
<path d="M31.7002 27.296H29.5892C29.5085 27.0398 29.3235 26.8358 29.0816 26.7315V23.6005C29.0816 23.4013 28.9203 23.2353 28.7163 23.2353C28.5171 23.2353 28.3558 23.3966 28.3558 23.6005V26.7315C28.0285 26.8738 27.8008 27.1964 27.8008 27.5759C27.8008 28.0835 28.2135 28.4962 28.7211 28.4962C29.0626 28.4962 29.3567 28.3064 29.5133 28.0265H31.7002C31.8994 28.0265 32.0655 27.8653 32.0655 27.6613C32.0655 27.4573 31.8994 27.296 31.7002 27.296ZM28.7211 19.8434C29.7173 19.8434 30.666 20.0379 31.5436 20.3842V10.8918H5.5V26.6651C5.5 28.2637 6.79507 29.5588 8.39848 29.5588H21.259C21.0882 28.9231 20.9886 28.259 20.9886 27.5711C20.9934 23.3112 24.4564 19.8434 28.7211 19.8434ZM26.1546 12.2391H29.5038V15.4649H26.1546V12.2391ZM20.13 12.2391H23.4791V15.4649H20.13V12.2391ZM11.4345 26.6129H8.08539V23.3871H11.4345V26.6129ZM11.4345 21.0389H8.08539V17.8131H11.4345V21.0389ZM11.4345 15.4649H8.08539V12.2391H11.4345V15.4649ZM17.4592 26.6129H14.1101V23.3871H17.4592V26.6129ZM17.4592 21.0389H14.1101V17.8131H17.4592V21.0389ZM17.4592 15.4649H14.1101V12.2391H17.4592V15.4649ZM20.13 17.8131H23.4791V21.0389H20.13V17.8131Z" fill="#F58465"/>
</svg>
