<svg width="40" height="40" viewBox="0 0 40 40" fill="none" xmlns="http://www.w3.org/2000/svg">
<path d="M25.5675 24.856C26.5249 24.874 27.4166 25.6154 27.5869 26.5673C27.7523 27.4936 27.2013 28.5009 26.3262 28.8588C25.3598 29.2541 24.1261 28.7861 23.6679 27.8356C23.1936 26.8519 23.6547 25.5213 24.662 25.0505C24.9285 24.9259 25.2213 24.8616 25.5142 24.856C25.5405 24.856 25.5405 24.856 25.5675 24.856ZM16.2272 22.0848L12.59 12.3853H11.6845C11.6845 12.3853 11.2144 12.3313 11.0545 11.9803C10.8814 11.6023 11.1403 11.0921 11.5536 11.0125C11.6111 11.0014 11.6263 11.0028 11.6845 11H13.0704C13.0919 11.0007 13.1133 11.0021 13.1348 11.0028C13.1916 11.0111 13.2061 11.0111 13.2615 11.027C13.4685 11.0865 13.6325 11.2478 13.7191 11.4493L17.7073 22.0848H26.3394L27.4941 15.1565H17.2269L17.1611 15.1537C17.1029 15.1454 17.0884 15.1454 17.0316 15.1288C16.5173 14.9779 16.3664 14.1284 16.9098 13.848C17.0067 13.7982 17.1154 13.7767 17.2269 13.7712H28.3117C28.7181 13.7906 29.0448 14.1527 28.995 14.5777L27.6097 22.8913C27.5398 23.216 27.2587 23.4548 26.9264 23.4701C26.9264 23.4701 16.2971 23.4673 15.8326 23.4701C15.3092 23.4805 14.9382 24.208 15.3335 24.6345C15.4629 24.7736 15.6498 24.8546 15.8437 24.856H21.384C21.9192 24.8726 22.2902 25.5954 21.8887 26.0232C21.7793 26.1395 21.6291 26.2164 21.4706 26.2357C21.4325 26.2406 21.4228 26.2406 21.384 26.2413H19.1839C19.2227 26.3465 19.2532 26.4552 19.2733 26.5673C19.4387 27.4936 18.8883 28.5009 18.0126 28.8588C17.0469 29.2541 15.8125 28.7861 15.3542 27.8356C15.1043 27.3171 15.114 26.7023 15.3266 26.1672C14.491 25.9297 13.8098 25.1509 13.7655 24.2662C13.7108 23.1572 14.664 22.0924 15.8395 22.0848H16.2272ZM17.2179 26.2413C16.6876 26.2517 16.3096 27.0062 16.7437 27.4299C17.1002 27.7781 17.8368 27.5788 17.9129 27.0319C17.9683 26.6393 17.6526 26.2385 17.2179 26.2413ZM25.5315 26.2413C25.0012 26.2517 24.6232 27.0062 25.0566 27.4299C25.4131 27.7774 26.1504 27.5788 26.2265 27.0319C26.2819 26.6393 25.9662 26.2385 25.5315 26.2413Z" fill="black"/>
<circle cx="30" cy="12" r="6.5" fill="#CF3D57" stroke="white"/>
<path d="M31.2008 8.40002V15.6H30.1561V9.79484C29.967 9.94218 29.7629 10.0682 29.5437 10.173C29.3276 10.2745 29.08 10.3646 28.8008 10.4431V9.47069C28.9749 9.40848 29.143 9.343 29.3051 9.27424C29.4672 9.20548 29.6263 9.12854 29.7824 9.04341C29.9415 8.95828 30.1006 8.86333 30.2597 8.75855C30.4218 8.65378 30.5884 8.53427 30.7595 8.40002H31.2008Z" fill="white"/>
</svg>
